<svg xmlns="http://www.w3.org/2000/svg" viewBox="0 0 1987.76 2048">
    <path fill="#ff9500"
        d="M403.37,1355.29c50.54-71.31,78.51-167.74,78.51-271s-28-199.75-78.51-271.06H963.76c108.84,0,180.71,125.76,180.71,271.06s-71.87,271-180.71,271ZM963.76,692.71H170.36l.13.18A256.29,256.29,0,0,0,60.24,721.73V60.24A60.23,60.23,0,0,1,120.47,0H963.76Zm120.48,29V0h843.29a60.23,60.23,0,0,1,60.23,60.24V1987.76a60.23,60.23,0,0,1-60.23,60.24H1084.24V1446.74c113.78-59.39,180.7-202.72,180.7-362.5S1198,781.12,1084.24,721.73ZM180.71,1355.29C71.87,1355.29,0,1229.53,0,1084.24S71.87,813.18,180.71,813.18s180.7,125.76,180.7,271.06S289.55,1355.29,180.71,1355.29Z" />
</svg>